<?xml version="1.0" encoding="UTF-8" standalone="no"?>
<!DOCTYPE svg PUBLIC "-//W3C//DTD SVG 1.1//EN"
 "http://www.w3.org/Graphics/SVG/1.1/DTD/svg11.dtd">
<!-- Generated by graphviz version 2.40.1 (20161225.0304)
 -->
<!-- Title: dependencies Pages: 1 -->
<svg width="870pt" height="284pt"
 viewBox="0.00 0.00 870.00 284.00" xmlns="http://www.w3.org/2000/svg" xmlns:xlink="http://www.w3.org/1999/xlink">
<g id="graph0" class="graph" transform="scale(1 1) rotate(0) translate(4 280)">
<title>dependencies</title>
<polygon fill="#ffffff" stroke="transparent" points="-4,4 -4,-280 866,-280 866,4 -4,4"/>
<text text-anchor="start" x="410.0091" y="-42.4" font-family="sans-serif" font-weight="bold" font-size="14.00" fill="#000000">Legend</text>
<polygon fill="#ffffb3" stroke="transparent" points="197,-10 197,-30 217,-30 217,-10 197,-10"/>
<text text-anchor="start" x="220.629" y="-15.4" font-family="sans-serif" font-size="14.00" fill="#000000"> &#160;Declarations</text>
<polygon fill="#8dd3c7" stroke="transparent" points="310,-10 310,-30 330,-30 330,-10 310,-10"/>
<text text-anchor="start" x="333.7251" y="-15.4" font-family="sans-serif" font-size="14.00" fill="#000000"> &#160;Module</text>
<polygon fill="#80b1d3" stroke="transparent" points="396,-10 396,-30 416,-30 416,-10 396,-10"/>
<text text-anchor="start" x="419.7812" y="-15.4" font-family="sans-serif" font-size="14.00" fill="#000000"> &#160;Bootstrap</text>
<polygon fill="#fdb462" stroke="transparent" points="493,-10 493,-30 513,-30 513,-10 493,-10"/>
<text text-anchor="start" x="516.6732" y="-15.4" font-family="sans-serif" font-size="14.00" fill="#000000"> &#160;Providers</text>
<polygon fill="#fb8072" stroke="transparent" points="589,-10 589,-30 609,-30 609,-10 589,-10"/>
<text text-anchor="start" x="612.7258" y="-15.4" font-family="sans-serif" font-size="14.00" fill="#000000"> &#160;Exports</text>
<g id="clust1" class="cluster">
<title>cluster_AppModule</title>
<polygon fill="none" stroke="#000000" stroke-dasharray="1,5" points="8,-70 8,-268 854,-268 854,-70 8,-70"/>
</g>
<g id="clust2" class="cluster">
<title>cluster_AppModule_declarations</title>
<polygon fill="none" stroke="#000000" points="724,-78 724,-130 846,-130 846,-78 724,-78"/>
</g>
<g id="clust4" class="cluster">
<title>cluster_AppModule_imports</title>
<polygon fill="none" stroke="#000000" points="572,-78 572,-130 716,-130 716,-78 572,-78"/>
</g>
<g id="clust6" class="cluster">
<title>cluster_AppModule_bootstrap</title>
<polygon fill="none" stroke="#000000" points="379,-208 379,-260 503,-260 503,-208 379,-208"/>
</g>
<g id="clust7" class="cluster">
<title>cluster_AppModule_providers</title>
<polygon fill="none" stroke="#000000" points="16,-78 16,-130 564,-130 564,-78 16,-78"/>
</g>
<!-- AppComponent -->
<g id="node1" class="node">
<title>AppComponent</title>
<polygon fill="#ffffb3" stroke="#000000" points="837.9399,-122 732.0601,-122 732.0601,-86 837.9399,-86 837.9399,-122"/>
<text text-anchor="middle" x="785" y="-99.8" font-family="Times,serif" font-size="14.00" fill="#000000">AppComponent</text>
</g>
<!-- AppModule -->
<g id="node2" class="node">
<title>AppModule</title>
<polygon fill="#8dd3c7" stroke="#000000" points="482.6571,-187 479.6571,-191 458.6571,-191 455.6571,-187 399.3429,-187 399.3429,-151 482.6571,-151 482.6571,-187"/>
<text text-anchor="middle" x="441" y="-164.8" font-family="Times,serif" font-size="14.00" fill="#000000">AppModule</text>
</g>
<!-- AppComponent&#45;&gt;AppModule -->
<g id="edge1" class="edge">
<title>AppComponent&#45;&gt;AppModule</title>
<path fill="none" stroke="#000000" d="M785,-122.2843C785,-143.3211 785,-175 785,-175 785,-175 492.8372,-175 492.8372,-175"/>
<polygon fill="#000000" stroke="#000000" points="492.8373,-171.5001 482.8372,-175 492.8372,-178.5001 492.8373,-171.5001"/>
</g>
<!-- AppComponent  -->
<g id="node4" class="node">
<title>AppComponent </title>
<polygon fill="#80b1d3" stroke="#000000" points="495.439,-252 386.561,-252 386.561,-216 495.439,-216 495.439,-252"/>
<text text-anchor="middle" x="441" y="-229.8" font-family="Times,serif" font-size="14.00" fill="#000000">AppComponent </text>
</g>
<!-- AppModule&#45;&gt;AppComponent  -->
<g id="edge3" class="edge">
<title>AppModule&#45;&gt;AppComponent </title>
<path fill="none" stroke="#000000" stroke-dasharray="1,5" d="M441,-187.1061C441,-187.1061 441,-205.991 441,-205.991"/>
<polygon fill="#000000" stroke="#000000" points="437.5001,-205.9909 441,-215.991 444.5001,-205.991 437.5001,-205.9909"/>
</g>
<!-- AppRoutingModule -->
<g id="node3" class="node">
<title>AppRoutingModule</title>
<polygon fill="#8dd3c7" stroke="#000000" points="708.2744,-122 705.2744,-126 684.2744,-126 681.2744,-122 579.7256,-122 579.7256,-86 708.2744,-86 708.2744,-122"/>
<text text-anchor="middle" x="644" y="-99.8" font-family="Times,serif" font-size="14.00" fill="#000000">AppRoutingModule</text>
</g>
<!-- AppRoutingModule&#45;&gt;AppModule -->
<g id="edge2" class="edge">
<title>AppRoutingModule&#45;&gt;AppModule</title>
<path fill="none" stroke="#000000" d="M644,-122.0225C644,-139.3734 644,-163 644,-163 644,-163 493.0617,-163 493.0617,-163"/>
<polygon fill="#000000" stroke="#000000" points="493.0618,-159.5001 483.0617,-163 493.0617,-166.5001 493.0618,-159.5001"/>
</g>
<!-- AppFacade -->
<g id="node5" class="node">
<title>AppFacade</title>
<ellipse fill="#fdb462" stroke="#000000" cx="501" cy="-104" rx="55.0169" ry="18"/>
<text text-anchor="middle" x="501" y="-99.8" font-family="Times,serif" font-size="14.00" fill="#000000">AppFacade</text>
</g>
<!-- AppFacade&#45;&gt;AppModule -->
<g id="edge4" class="edge">
<title>AppFacade&#45;&gt;AppModule</title>
<path fill="none" stroke="#000000" d="M464.4099,-117.468C464.4099,-117.468 464.4099,-140.8642 464.4099,-140.8642"/>
<polygon fill="#000000" stroke="#000000" points="460.91,-140.8641 464.4099,-150.8642 467.91,-140.8642 460.91,-140.8641"/>
</g>
<!-- ArrayKit -->
<g id="node6" class="node">
<title>ArrayKit</title>
<ellipse fill="#fdb462" stroke="#000000" cx="382" cy="-104" rx="45.7829" ry="18"/>
<text text-anchor="middle" x="382" y="-99.8" font-family="Times,serif" font-size="14.00" fill="#000000">ArrayKit</text>
</g>
<!-- ArrayKit&#45;&gt;AppModule -->
<g id="edge5" class="edge">
<title>ArrayKit&#45;&gt;AppModule</title>
<path fill="none" stroke="#000000" d="M413.5316,-117.1537C413.5316,-117.1537 413.5316,-140.6938 413.5316,-140.6938"/>
<polygon fill="#000000" stroke="#000000" points="410.0317,-140.6938 413.5316,-150.6938 417.0317,-140.6939 410.0317,-140.6938"/>
</g>
<!-- DarkThemer -->
<g id="node7" class="node">
<title>DarkThemer</title>
<ellipse fill="#fdb462" stroke="#000000" cx="258" cy="-104" rx="60.2325" ry="18"/>
<text text-anchor="middle" x="258" y="-99.8" font-family="Times,serif" font-size="14.00" fill="#000000">DarkThemer</text>
</g>
<!-- DarkThemer&#45;&gt;AppModule -->
<g id="edge6" class="edge">
<title>DarkThemer&#45;&gt;AppModule</title>
<path fill="none" stroke="#000000" d="M258,-122.0225C258,-139.3734 258,-163 258,-163 258,-163 389.0161,-163 389.0161,-163"/>
<polygon fill="#000000" stroke="#000000" points="389.0161,-166.5001 399.0161,-163 389.0161,-159.5001 389.0161,-166.5001"/>
</g>
<!-- LoaderController -->
<g id="node8" class="node">
<title>LoaderController</title>
<ellipse fill="#fdb462" stroke="#000000" cx="102" cy="-104" rx="78.1482" ry="18"/>
<text text-anchor="middle" x="102" y="-99.8" font-family="Times,serif" font-size="14.00" fill="#000000">LoaderController</text>
</g>
<!-- LoaderController&#45;&gt;AppModule -->
<g id="edge7" class="edge">
<title>LoaderController&#45;&gt;AppModule</title>
<path fill="none" stroke="#000000" d="M102,-122.2843C102,-143.3211 102,-175 102,-175 102,-175 389.0919,-175 389.0919,-175"/>
<polygon fill="#000000" stroke="#000000" points="389.092,-178.5001 399.0919,-175 389.0919,-171.5001 389.092,-178.5001"/>
</g>
</g>
</svg>
