<?xml version="1.0" encoding="UTF-8" standalone="no"?>
<!DOCTYPE svg PUBLIC "-//W3C//DTD SVG 1.1//EN"
 "http://www.w3.org/Graphics/SVG/1.1/DTD/svg11.dtd">
<!-- Generated by graphviz version 2.40.1 (20161225.0304)
 -->
<!-- Title: dependencies Pages: 1 -->
<svg width="504pt" height="211pt"
 viewBox="0.00 0.00 504.00 211.00" xmlns="http://www.w3.org/2000/svg" xmlns:xlink="http://www.w3.org/1999/xlink">
<g id="graph0" class="graph" transform="scale(1 1) rotate(0) translate(4 207)">
<title>dependencies</title>
<polygon fill="#ffffff" stroke="transparent" points="-4,4 -4,-207 500,-207 500,4 -4,4"/>
<text text-anchor="start" x="227.0091" y="-42.4" font-family="sans-serif" font-weight="bold" font-size="14.00" fill="#000000">Legend</text>
<polygon fill="#ffffb3" stroke="transparent" points="14,-10 14,-30 34,-30 34,-10 14,-10"/>
<text text-anchor="start" x="37.629" y="-15.4" font-family="sans-serif" font-size="14.00" fill="#000000"> &#160;Declarations</text>
<polygon fill="#8dd3c7" stroke="transparent" points="127,-10 127,-30 147,-30 147,-10 127,-10"/>
<text text-anchor="start" x="150.7251" y="-15.4" font-family="sans-serif" font-size="14.00" fill="#000000"> &#160;Module</text>
<polygon fill="#80b1d3" stroke="transparent" points="213,-10 213,-30 233,-30 233,-10 213,-10"/>
<text text-anchor="start" x="236.7812" y="-15.4" font-family="sans-serif" font-size="14.00" fill="#000000"> &#160;Bootstrap</text>
<polygon fill="#fdb462" stroke="transparent" points="310,-10 310,-30 330,-30 330,-10 310,-10"/>
<text text-anchor="start" x="333.6732" y="-15.4" font-family="sans-serif" font-size="14.00" fill="#000000"> &#160;Providers</text>
<polygon fill="#fb8072" stroke="transparent" points="406,-10 406,-30 426,-30 426,-10 406,-10"/>
<text text-anchor="start" x="429.7258" y="-15.4" font-family="sans-serif" font-size="14.00" fill="#000000"> &#160;Exports</text>
<g id="clust1" class="cluster">
<title>cluster_EvalSelectionPageModule</title>
<polygon fill="none" stroke="#000000" stroke-dasharray="1,5" points="106,-70 106,-195 390,-195 390,-70 106,-70"/>
</g>
<g id="clust2" class="cluster">
<title>cluster_EvalSelectionPageModule_declarations</title>
<polygon fill="none" stroke="#000000" points="114,-78 114,-130 382,-130 382,-78 114,-78"/>
</g>
<!-- AEvaluationPage -->
<g id="node1" class="node">
<title>AEvaluationPage</title>
<polygon fill="#ffffb3" stroke="#000000" points="373.972,-122 260.028,-122 260.028,-86 373.972,-86 373.972,-122"/>
<text text-anchor="middle" x="317" y="-99.8" font-family="Times,serif" font-size="14.00" fill="#000000">AEvaluationPage</text>
</g>
<!-- EvalSelectionPageModule -->
<g id="node3" class="node">
<title>EvalSelectionPageModule</title>
<polygon fill="#8dd3c7" stroke="#000000" points="330.0183,-187 327.0183,-191 306.0183,-191 303.0183,-187 165.9817,-187 165.9817,-151 330.0183,-151 330.0183,-187"/>
<text text-anchor="middle" x="248" y="-164.8" font-family="Times,serif" font-size="14.00" fill="#000000">EvalSelectionPageModule</text>
</g>
<!-- AEvaluationPage&#45;&gt;EvalSelectionPageModule -->
<g id="edge1" class="edge">
<title>AEvaluationPage&#45;&gt;EvalSelectionPageModule</title>
<path fill="none" stroke="#000000" d="M295.1364,-122.1061C295.1364,-122.1061 295.1364,-140.991 295.1364,-140.991"/>
<polygon fill="#000000" stroke="#000000" points="291.6365,-140.9909 295.1364,-150.991 298.6365,-140.991 291.6365,-140.9909"/>
</g>
<!-- EvalSelectionPage -->
<g id="node2" class="node">
<title>EvalSelectionPage</title>
<polygon fill="#ffffb3" stroke="#000000" points="242.4678,-122 121.5322,-122 121.5322,-86 242.4678,-86 242.4678,-122"/>
<text text-anchor="middle" x="182" y="-99.8" font-family="Times,serif" font-size="14.00" fill="#000000">EvalSelectionPage</text>
</g>
<!-- EvalSelectionPage&#45;&gt;EvalSelectionPageModule -->
<g id="edge2" class="edge">
<title>EvalSelectionPage&#45;&gt;EvalSelectionPageModule</title>
<path fill="none" stroke="#000000" d="M204.1126,-122.1061C204.1126,-122.1061 204.1126,-140.991 204.1126,-140.991"/>
<polygon fill="#000000" stroke="#000000" points="200.6126,-140.9909 204.1126,-150.991 207.6126,-140.991 200.6126,-140.9909"/>
</g>
</g>
</svg>
