<?xml version="1.0" encoding="UTF-8" standalone="no"?>
<!DOCTYPE svg PUBLIC "-//W3C//DTD SVG 1.1//EN"
 "http://www.w3.org/Graphics/SVG/1.1/DTD/svg11.dtd">
<!-- Generated by graphviz version 2.40.1 (20161225.0304)
 -->
<!-- Title: dependencies Pages: 1 -->
<svg width="504pt" height="211pt"
 viewBox="0.00 0.00 504.00 211.00" xmlns="http://www.w3.org/2000/svg" xmlns:xlink="http://www.w3.org/1999/xlink">
<g id="graph0" class="graph" transform="scale(1 1) rotate(0) translate(4 207)">
<title>dependencies</title>
<polygon fill="#ffffff" stroke="transparent" points="-4,4 -4,-207 500,-207 500,4 -4,4"/>
<text text-anchor="start" x="227.0091" y="-42.4" font-family="sans-serif" font-weight="bold" font-size="14.00" fill="#000000">Legend</text>
<polygon fill="#ffffb3" stroke="transparent" points="14,-10 14,-30 34,-30 34,-10 14,-10"/>
<text text-anchor="start" x="37.629" y="-15.4" font-family="sans-serif" font-size="14.00" fill="#000000"> &#160;Declarations</text>
<polygon fill="#8dd3c7" stroke="transparent" points="127,-10 127,-30 147,-30 147,-10 127,-10"/>
<text text-anchor="start" x="150.7251" y="-15.4" font-family="sans-serif" font-size="14.00" fill="#000000"> &#160;Module</text>
<polygon fill="#80b1d3" stroke="transparent" points="213,-10 213,-30 233,-30 233,-10 213,-10"/>
<text text-anchor="start" x="236.7812" y="-15.4" font-family="sans-serif" font-size="14.00" fill="#000000"> &#160;Bootstrap</text>
<polygon fill="#fdb462" stroke="transparent" points="310,-10 310,-30 330,-30 330,-10 310,-10"/>
<text text-anchor="start" x="333.6732" y="-15.4" font-family="sans-serif" font-size="14.00" fill="#000000"> &#160;Providers</text>
<polygon fill="#fb8072" stroke="transparent" points="406,-10 406,-30 426,-30 426,-10 406,-10"/>
<text text-anchor="start" x="429.7258" y="-15.4" font-family="sans-serif" font-size="14.00" fill="#000000"> &#160;Exports</text>
<g id="clust1" class="cluster">
<title>cluster_AppConfigPageModule</title>
<polygon fill="none" stroke="#000000" stroke-dasharray="1,5" points="46,-70 46,-195 450,-195 450,-70 46,-70"/>
</g>
<g id="clust2" class="cluster">
<title>cluster_AppConfigPageModule_declarations</title>
<polygon fill="none" stroke="#000000" points="54,-78 54,-130 442,-130 442,-78 54,-78"/>
</g>
<!-- AExplanationsPage -->
<g id="node1" class="node">
<title>AExplanationsPage</title>
<polygon fill="#ffffb3" stroke="#000000" points="434.4173,-122 307.5827,-122 307.5827,-86 434.4173,-86 434.4173,-122"/>
<text text-anchor="middle" x="371" y="-99.8" font-family="Times,serif" font-size="14.00" fill="#000000">AExplanationsPage</text>
</g>
<!-- AppConfigPageModule -->
<g id="node4" class="node">
<title>AppConfigPageModule</title>
<polygon fill="#8dd3c7" stroke="#000000" points="312.7562,-187 309.7562,-191 288.7562,-191 285.7562,-187 163.2438,-187 163.2438,-151 312.7562,-151 312.7562,-187"/>
<text text-anchor="middle" x="238" y="-164.8" font-family="Times,serif" font-size="14.00" fill="#000000">AppConfigPageModule</text>
</g>
<!-- AExplanationsPage&#45;&gt;AppConfigPageModule -->
<g id="edge1" class="edge">
<title>AExplanationsPage&#45;&gt;AppConfigPageModule</title>
<path fill="none" stroke="#000000" d="M307.7092,-104C302.3158,-104 298.864,-104 298.864,-104 298.864,-104 298.864,-140.8939 298.864,-140.8939"/>
<polygon fill="#000000" stroke="#000000" points="295.364,-140.8938 298.864,-150.8939 302.364,-140.8939 295.364,-140.8938"/>
</g>
<!-- AStatisticsPage -->
<g id="node2" class="node">
<title>AStatisticsPage</title>
<polygon fill="#ffffb3" stroke="#000000" points="289.8725,-122 186.1275,-122 186.1275,-86 289.8725,-86 289.8725,-122"/>
<text text-anchor="middle" x="238" y="-99.8" font-family="Times,serif" font-size="14.00" fill="#000000">AStatisticsPage</text>
</g>
<!-- AStatisticsPage&#45;&gt;AppConfigPageModule -->
<g id="edge2" class="edge">
<title>AStatisticsPage&#45;&gt;AppConfigPageModule</title>
<path fill="none" stroke="#000000" d="M238,-122.1061C238,-122.1061 238,-140.991 238,-140.991"/>
<polygon fill="#000000" stroke="#000000" points="234.5001,-140.9909 238,-150.991 241.5001,-140.991 234.5001,-140.9909"/>
</g>
<!-- AppConfigPage -->
<g id="node3" class="node">
<title>AppConfigPage</title>
<polygon fill="#ffffb3" stroke="#000000" points="168.2064,-122 61.7936,-122 61.7936,-86 168.2064,-86 168.2064,-122"/>
<text text-anchor="middle" x="115" y="-99.8" font-family="Times,serif" font-size="14.00" fill="#000000">AppConfigPage</text>
</g>
<!-- AppConfigPage&#45;&gt;AppConfigPageModule -->
<g id="edge3" class="edge">
<title>AppConfigPage&#45;&gt;AppConfigPageModule</title>
<path fill="none" stroke="#000000" d="M168.1884,-104C173.5585,-104 177.0835,-104 177.0835,-104 177.0835,-104 177.0835,-140.8939 177.0835,-140.8939"/>
<polygon fill="#000000" stroke="#000000" points="173.5835,-140.8938 177.0835,-150.8939 180.5835,-140.8939 173.5835,-140.8938"/>
</g>
</g>
</svg>
