<?xml version="1.0" encoding="UTF-8" standalone="no"?>
<!DOCTYPE svg PUBLIC "-//W3C//DTD SVG 1.1//EN"
 "http://www.w3.org/Graphics/SVG/1.1/DTD/svg11.dtd">
<!-- Generated by graphviz version 2.40.1 (20161225.0304)
 -->
<!-- Title: dependencies Pages: 1 -->
<svg width="504pt" height="211pt"
 viewBox="0.00 0.00 504.00 211.00" xmlns="http://www.w3.org/2000/svg" xmlns:xlink="http://www.w3.org/1999/xlink">
<g id="graph0" class="graph" transform="scale(1 1) rotate(0) translate(4 207)">
<title>dependencies</title>
<polygon fill="#ffffff" stroke="transparent" points="-4,4 -4,-207 500,-207 500,4 -4,4"/>
<text text-anchor="start" x="227.0091" y="-42.4" font-family="sans-serif" font-weight="bold" font-size="14.00" fill="#000000">Legend</text>
<polygon fill="#ffffb3" stroke="transparent" points="14,-10 14,-30 34,-30 34,-10 14,-10"/>
<text text-anchor="start" x="37.629" y="-15.4" font-family="sans-serif" font-size="14.00" fill="#000000"> &#160;Declarations</text>
<polygon fill="#8dd3c7" stroke="transparent" points="127,-10 127,-30 147,-30 147,-10 127,-10"/>
<text text-anchor="start" x="150.7251" y="-15.4" font-family="sans-serif" font-size="14.00" fill="#000000"> &#160;Module</text>
<polygon fill="#80b1d3" stroke="transparent" points="213,-10 213,-30 233,-30 233,-10 213,-10"/>
<text text-anchor="start" x="236.7812" y="-15.4" font-family="sans-serif" font-size="14.00" fill="#000000"> &#160;Bootstrap</text>
<polygon fill="#fdb462" stroke="transparent" points="310,-10 310,-30 330,-30 330,-10 310,-10"/>
<text text-anchor="start" x="333.6732" y="-15.4" font-family="sans-serif" font-size="14.00" fill="#000000"> &#160;Providers</text>
<polygon fill="#fb8072" stroke="transparent" points="406,-10 406,-30 426,-30 426,-10 406,-10"/>
<text text-anchor="start" x="429.7258" y="-15.4" font-family="sans-serif" font-size="14.00" fill="#000000"> &#160;Exports</text>
<g id="clust1" class="cluster">
<title>cluster_AppConfigPageModule</title>
<polygon fill="none" stroke="#000000" stroke-dasharray="1,5" points="118,-70 118,-195 378,-195 378,-70 118,-70"/>
</g>
<g id="clust2" class="cluster">
<title>cluster_AppConfigPageModule_declarations</title>
<polygon fill="none" stroke="#000000" points="126,-78 126,-130 370,-130 370,-78 126,-78"/>
</g>
<!-- AStatisticsPage -->
<g id="node1" class="node">
<title>AStatisticsPage</title>
<polygon fill="#ffffb3" stroke="#000000" points="361.8725,-122 258.1275,-122 258.1275,-86 361.8725,-86 361.8725,-122"/>
<text text-anchor="middle" x="310" y="-99.8" font-family="Times,serif" font-size="14.00" fill="#000000">AStatisticsPage</text>
</g>
<!-- AppConfigPageModule -->
<g id="node3" class="node">
<title>AppConfigPageModule</title>
<polygon fill="#8dd3c7" stroke="#000000" points="322.7562,-187 319.7562,-191 298.7562,-191 295.7562,-187 173.2438,-187 173.2438,-151 322.7562,-151 322.7562,-187"/>
<text text-anchor="middle" x="248" y="-164.8" font-family="Times,serif" font-size="14.00" fill="#000000">AppConfigPageModule</text>
</g>
<!-- AStatisticsPage&#45;&gt;AppConfigPageModule -->
<g id="edge1" class="edge">
<title>AStatisticsPage&#45;&gt;AppConfigPageModule</title>
<path fill="none" stroke="#000000" d="M290.4709,-122.1061C290.4709,-122.1061 290.4709,-140.991 290.4709,-140.991"/>
<polygon fill="#000000" stroke="#000000" points="286.971,-140.9909 290.4709,-150.991 293.971,-140.991 286.971,-140.9909"/>
</g>
<!-- AppConfigPage -->
<g id="node2" class="node">
<title>AppConfigPage</title>
<polygon fill="#ffffb3" stroke="#000000" points="240.2064,-122 133.7936,-122 133.7936,-86 240.2064,-86 240.2064,-122"/>
<text text-anchor="middle" x="187" y="-99.8" font-family="Times,serif" font-size="14.00" fill="#000000">AppConfigPage</text>
</g>
<!-- AppConfigPage&#45;&gt;AppConfigPageModule -->
<g id="edge2" class="edge">
<title>AppConfigPage&#45;&gt;AppConfigPageModule</title>
<path fill="none" stroke="#000000" d="M206.6126,-122.1061C206.6126,-122.1061 206.6126,-140.991 206.6126,-140.991"/>
<polygon fill="#000000" stroke="#000000" points="203.1126,-140.9909 206.6126,-150.991 210.1126,-140.991 203.1126,-140.9909"/>
</g>
</g>
</svg>
